<svg id="Layer_1" data-name="Layer 1" xmlns="http://www.w3.org/2000/svg" viewBox="0 0 310.81 97.98"><defs><style>.cls-1{fill:#fff;}.cls-2{fill:#eea100;}</style></defs><polygon class="cls-1" points="65.61 96.28 117.55 2.11 169.34 96.28 150.28 96.28 117.55 36.95 84.68 96.26 65.61 96.28"/><path class="cls-2" d="M22.79,44H32.88c6.95,0,15.23-2.19,15.23-12.62,0-9.61-8-10.84-15.07-10.84H22.79Zm0,40.66h12c11.88,0,17.65-4.57,17.65-14,0-8.86-5.44-12.82-17.65-12.82h-12ZM3.63,99.81V5.37H33.84c22.19,0,33,7.5,33,22.94C66.82,48.81,51,49.47,51,49.47s20.11.18,20.11,22.88c0,17.45-12.63,27.46-34.66,27.46Z" transform="translate(-3.63 -3.6)"/><path class="cls-2" d="M209.6,101.58a51.22,51.22,0,0,1-34-13.1l10.92-13.62c7.59,6.25,16.23,9.69,24.43,9.69,8.66,0,13.82-3.43,13.82-9.17,0-6.91-5-9-12.49-12.27l-2.26-1-12-5.35C190.89,54,179,46.93,179,31.38a25.75,25.75,0,0,1,9.09-19.63C194.11,6.49,202.59,3.6,212,3.6h0a43.09,43.09,0,0,1,29.51,11.79l-9.53,12.43c-6.09-4.46-11.87-7.19-21.12-7.19-7.66,0-12.41,3.63-12.41,9.48,0,6.13,6,8.47,14.34,11.71l1.26.49,11.27,5c13.11,5.13,19.2,13.18,19.2,25.34,0,17-14.34,29-34.88,29" transform="translate(-3.63 -3.6)"/><polygon class="cls-2" points="249.89 1.77 249.89 96.21 310.81 96.21 310.81 79.73 269.08 79.73 269.08 55.81 303.33 55.81 303.33 39.33 269.08 39.33 269.08 18.25 310.81 18.25 310.81 1.77 249.89 1.77"/></svg>