<?xml version="1.0" encoding="utf-8"?>
<!-- Generator: Adobe Illustrator 25.4.1, SVG Export Plug-In . SVG Version: 6.00 Build 0)  -->
<svg version="1.1" id="Layer_1" xmlns="http://www.w3.org/2000/svg" xmlns:xlink="http://www.w3.org/1999/xlink" x="0px" y="0px"
	 viewBox="0 0 1000 1000" style="enable-background:new 0 0 1000 1000;" xml:space="preserve">
<style type="text/css">
	.st0{fill:#FFFFFF;}
</style>
<path class="st0" d="M499.2,242.7c-141.6,0-256.8,115.2-256.8,256.8s115.2,256.7,256.8,256.7S755.9,641,755.9,499.5
	C756,357.9,640.8,242.7,499.2,242.7L499.2,242.7z M499.2,658.3c-87.6,0-158.8-71.2-158.8-158.8s71.2-158.8,158.8-158.8
	S658,411.9,658,499.5S586.8,658.3,499.2,658.3z M709.1,5H289.3C132.4,5,4.7,132.7,4.7,289.6v419.8C4.7,866.3,132.4,994,289.3,994
	h419.8c156.9,0,284.6-127.7,284.6-284.6V289.6C993.7,132.7,866.1,5,709.1,5L709.1,5z M895.8,709.4C895.8,812.3,812,896,709.1,896
	H289.3c-102.9,0-186.6-83.7-186.6-186.6V289.6c0-102.9,83.7-186.6,186.6-186.6h419.8c102.9,0,186.6,83.7,186.6,186.6v419.8H895.8z
	 M759.5,168.5c-37,0-67.2,30.1-67.2,67.2c0,37,30.1,67.2,67.2,67.2c37,0,67.2-30.1,67.2-67.2S796.5,168.5,759.5,168.5z"/>
</svg>
