<?xml version="1.0" encoding="utf-8"?>
<!-- Generator: Adobe Illustrator 25.4.1, SVG Export Plug-In . SVG Version: 6.00 Build 0)  -->
<svg version="1.1" id="Layer_1" xmlns="http://www.w3.org/2000/svg" xmlns:xlink="http://www.w3.org/1999/xlink" x="0px" y="0px"
	 viewBox="0 0 1000 1000" style="enable-background:new 0 0 1000 1000;" xml:space="preserve">
<style type="text/css">
	.st0{fill:#FFFFFF;}
</style>
<path class="st0" d="M870.5,62.4h-741c-35.5,0-64.3,28.1-64.3,62.8v749.6c0,34.7,28.8,62.7,64.3,62.7h741c35.5,0,64.3-28,64.3-62.7
	V125.1C934.7,90.5,905.9,62.4,870.5,62.4L870.5,62.4z M328.8,794.8H197.5v-395h131.3V794.8z M263.2,345.9h-0.9
	c-44.1,0-72.5-30.3-72.5-68.3c0-38.8,29.4-68.3,74.2-68.3c45,0,72.6,29.5,73.4,68.3C337.4,315.6,309,345.9,263.2,345.9L263.2,345.9z
	 M802.4,794.8H671V583.5c0-53.1-18.9-89.3-66.4-89.3c-36.4,0-58,24.4-67.5,48c-3.4,8.5-4.2,20.3-4.2,32V795H401.5
	c0,0,1.7-358,0-395.1h131.4v55.9c17.4-26.9,48.7-65.2,118.3-65.2c86.4,0,151.2,56.5,151.2,177.9L802.4,794.8L802.4,794.8z"/>
</svg>
