<svg id="Layer_1" data-name="Layer 1" xmlns="http://www.w3.org/2000/svg" viewBox="0 0 101.29 91.49"><defs><style>.cls-1{fill:#fff;}</style></defs><path class="cls-1" d="M4.93,2a1.46,1.46,0,0,1-.11.28c0,.39-.5.12-.32.78-.43.26.42,1.33,0,1.94a12.29,12.29,0,0,1,0,2.64c.78.59-.8,1.85,0,2.63,1.3,1-.46,1.76-.82,2.48,1.16.3-1.7,1,0,1.28-1,.61.24,1.58,0,2.2.26.9-.86,1.73-.66,2.56-1.23.84-.14,1.67-.52,2.58-.87,1-.38,1.89.4,2.9-.41.74-1.66,1.43.4,2.13-.73.7,0,1.4.38,2.15s1.77,1.44,0,2.16c1.25.72-1,1.44,0,2.16.8,1.13.35,1.93-.86,2.93-.3.84-.67.89-1.08,1.76-.48,1.29.16,2.61-.12,3.93,2,1.32-.84,2.65.14,3.94C1.19,46.65.27,48,2.2,49.13s1.58,2.18,1.57,3.51c1.18.92.12,2,.34,2.79-.79.35.49.66,1.07,1s.39,1,1.18,1.45c-1.21.58.52.89,1.25,1.7.09,1.19,0,2.44,0,3.63-.13,1,1.33,2,.68,3-.06,1-.76,2,.45,3,.95.52,1.1.86-.31,1.33,1.31.57.85,1.12-.09,1.71-1.09.88-1.56,1.94,0,2.8-.54,1.06.71,2-.4,3.09.41.43-.27,1.29,0,1.67.52.23-2.67.36-1,.5-.58.76-2.15,2.11-1.62,2.78-1.29.87-.49,1.12-.09,3.13-.34.94-1.38,1.79-.42,3.07-1,.94.15,2.37.51,3,.14.25.49.76.72,1.26H21.57c.05,0,.18,0,.36,0h80.41V2.24l-.61-.2H98.92a2.59,2.59,0,0,0-.46.3c-.15-.11-.31-.21-.46-.3Z" transform="translate(-1.04 -2.04)"/></svg>