<?xml version="1.0" encoding="utf-8"?>
<!-- Generator: Adobe Illustrator 25.4.1, SVG Export Plug-In . SVG Version: 6.00 Build 0)  -->
<svg version="1.1" id="Layer_1" xmlns="http://www.w3.org/2000/svg" xmlns:xlink="http://www.w3.org/1999/xlink" x="0px" y="0px"
	 viewBox="0 0 1000 1000" style="enable-background:new 0 0 1000 1000;" xml:space="preserve">
<style type="text/css">
	.st0{fill:#FFFFFF;}
</style>
<path class="st0" d="M999.9,429.1h-1.7c0-9.8,0.2-19.5-0.1-29.3c-0.3-9.6-1-19.2-1.7-28.8c-0.9-11.9-2.1-23.8-3.2-35.7
	s-1.3-24-3.7-35.6c-3.6-17.5-8.1-34.8-13.3-51.8c-4.7-15.3-11.7-29.8-22.3-42c-23.3-26.9-53.3-41.2-88.4-44.9
	c-18.5-1.9-37.2-3.1-55.8-4.2c-17.1-1.1-34.2-1.9-51.4-2.5c-25.8-1-51.6-1.9-77.4-2.6c-25.3-0.7-50.6-1.4-75.8-1.6
	c-49.6-0.3-99.2-0.8-148.8-0.4c-50.3,0.4-100.5,1.7-150.8,2.7c-21.2,0.4-42.4,1.1-63.6,1.7c-6.7,0.2-13.4,0.5-20.1,0.9
	c-22,1.3-44,2.3-65.9,4.2c-14.7,1.3-29.7,2.6-44,6.1c-31.5,7.6-56.9,24.9-74.4,52.4c-12.7,20.2-19.7,42.8-24,66
	C10,302.6,7.9,321.8,5.9,341c-2,19.4-3.1,38.9-4.2,58.3C0.7,415.2,0,431.1,0,447c0,45.1,0.3,90.3,0.8,135.4
	c0.1,11.3,0.9,22.6,1.7,33.8c1.2,16.1,2.6,32.2,4,48.2c1,11.9,1.7,23.9,3.6,35.7c3.2,20.3,8.6,40,15.9,59.2
	c13.4,35.5,38.5,58.8,74.2,70.8c22.7,7.6,46.4,9.7,69.9,11.9c19,1.8,38.1,2.4,57.2,3.3c15.7,0.7,31.5,1.3,47.3,1.7
	c24.7,0.7,49.4,1.3,74.1,1.7c22.9,0.4,45.8,0.9,68.7,1.1c40.2,0.4,80.5,1.1,120.6,0.8c50.4-0.4,100.8-1.7,151.2-2.7
	c20.7-0.4,41.3-1.1,62-1.7c6.8-0.2,13.7-0.5,20.5-0.9c22.7-1.3,45.4-2.4,68-4.2c14.2-1.1,28.6-2.1,42.5-5.1
	c44.1-9.5,75.3-34.9,91.8-77.6c11.3-29.1,16.6-59.4,19.1-90.3c1.4-17.5,3.1-35,4-52.4c1.2-22.4,2.3-44.9,2.5-67.3
	C1000.2,508.7,999.9,468.9,999.9,429.1L999.9,429.1z M396.6,629.9V349.2c90.1,46.9,179.7,93.6,270.1,140.8
	C576.5,536.7,486.9,583.1,396.6,629.9L396.6,629.9z"/>
</svg>
